<?xml version="1.0" encoding="utf-8"?>
<!-- Generator: Adobe Illustrator 18.1.1, SVG Export Plug-In . SVG Version: 6.00 Build 0)  -->
<!DOCTYPE svg PUBLIC "-//W3C//DTD SVG 1.1//EN" "http://www.w3.org/Graphics/SVG/1.1/DTD/svg11.dtd">
<svg version="1.1" id="Layer_1" xmlns="http://www.w3.org/2000/svg" xmlns:xlink="http://www.w3.org/1999/xlink" x="0px" y="0px"
	 viewBox="0 74 216 211.9" enable-background="new 0 74 216 211.9" xml:space="preserve">
<g>
	<path fill="#434143" d="M124.3,254.5c0,0-2.6,10.7-0.8,16.9c1.9,6.2,6,6.5,9.8,7.3c3.8,0.8,22.3,4.6,26.1,5l3.1,0.8
		c0,0,0.5,1-4.2,1.1s-48.7,1.4-53.9,1.3s-8.7-1.1-8.7-1.1s-13-3.7-15.4-5.3c-2.4-1.6-2.7-3.6-2.7-5.6c0-2,0.6-5.6,1.4-9.8
		c0.9-4.2,2.7-10.5,2.7-10.5H124.3z"/>
	<path fill="#DCDDDE" d="M124.3,254.2c0,0-2.6,10.7-0.8,16.9c1.9,6.2,6,6.5,9.8,7.3c3.8,0.8,22.3,4.6,26.1,5l3.1,0.8
		c0,0,0.5,1-4.2,1.1c-4.7,0-48.7,1.4-53.9,1.3c-5.2-0.1-8.7-1.1-8.7-1.1s-13.1-3.7-15.5-5.3c-2.4-1.6-2.7-3.6-2.7-5.6
		c0-2,0.6-5.6,1.4-9.8c0.9-4.2,2.7-10.5,2.7-10.5H124.3z"/>
	<path fill="#F7F8F8" d="M124.8,254.2c0,0-2.5,10.1-0.6,16.3c1.9,6.2,6,6.5,9.8,7.3c3.8,0.8,21.8,4.6,25.5,5.4
		c3.8,0.8,3.2,1.1,2.6,1.3c-0.6,0.3-2.8,0.3-2.8,0.3s-49.2,1.3-54.4,1.1c-5.2-0.1-8.7-1.1-8.7-1.1s-13-3.7-15.4-5.3
		c-2.4-1.6-2.7-3.6-2.7-5.6s0.6-5.6,1.4-9.8c0.9-4.1,2.5-9.8,2.5-9.8H124.8z"/>
	<path fill="#F7F8F8" d="M214.6,251.1c0.3,3.3-2.2,6.1-5.5,6.1H8.5c-3.6,0-6.5-2.9-6.5-6.5v-21.6l211.2,7L214.6,251.1z"/>
	<path fill="#49525C" d="M2,229.1V80.2c0-3.8,3.5-6.7,7.3-6l187.3,35.7c2.6,0.5,4.7,2.7,4.9,5.4L213.2,236L2,229.1z"/>
	<polygon fill="#2DA9E0" points="203.4,226.9 10.8,220.5 10.8,83.5 192.8,118.2 	"/>
	<g opacity="0.5" enable-background="new    ">
		<g>
			<defs>
				<path id="SVGID_1_" d="M124.8,254.2c0,0-2.5,10.1-0.6,16.3c1.9,6.2,6,6.5,9.8,7.3c3.8,0.8,21.8,4.6,25.5,5.4
					c3.8,0.8,3.2,1.1,2.6,1.3c-0.6,0.3-2.8,0.3-2.8,0.3s-49.2,1.3-54.4,1.1c-5.2-0.1-8.7-1.1-8.7-1.1s-13-3.7-15.4-5.3
					c-2.4-1.6-2.7-3.6-2.7-5.6s0.6-5.6,1.4-9.8c0.9-4.1,2.5-9.8,2.5-9.8H124.8z"/>
			</defs>
			<clipPath id="SVGID_2_">
				<use xlink:href="#SVGID_1_"  overflow="visible"/>
			</clipPath>
			<rect x="67.4" y="257.2" clip-path="url(#SVGID_2_)" fill="#C1C0C0" width="65.8" height="6.4"/>
		</g>
	</g>
</g>
</svg>
