<?xml version="1.0" encoding="utf-8"?>
<!-- Generator: Adobe Illustrator 18.1.0, SVG Export Plug-In . SVG Version: 6.00 Build 0)  -->
<!DOCTYPE svg PUBLIC "-//W3C//DTD SVG 1.1//EN" "http://www.w3.org/Graphics/SVG/1.1/DTD/svg11.dtd">
<svg version="1.1" id="Layer_1" xmlns="http://www.w3.org/2000/svg" xmlns:xlink="http://www.w3.org/1999/xlink" x="0px" y="0px"
	 viewBox="0 0 500 500" enable-background="new 0 0 500 500" xml:space="preserve">
<g>
	<path fill-rule="evenodd" clip-rule="evenodd" fill="#434143" d="M312.5,422.4c0,0,4.1,14.6,6.2,24.3c2,9.7,3.2,18.1,3.3,22.7
		c0.1,4.6-0.7,9.2-6.2,13c-5.5,3.8-35.7,12.3-35.7,12.3s-8.2,2.3-20.2,2.6c-12,0.3-113.9-2.9-124.8-3c-10.9-0.1-9.8-2.5-9.8-2.5
		l7.1-1.9c8.8-0.9,51.7-9.7,60.4-11.5c8.8-1.8,18.3-2.4,22.6-16.8c4.2-14.5-1.8-39.2-1.8-39.2H312.5z"/>
	<path fill-rule="evenodd" clip-rule="evenodd" fill="#DCDDDE" d="M312.5,421.7c0,0,4.1,14.6,6.2,24.3c2,9.7,3.2,18.1,3.3,22.7
		c0.1,4.6-0.7,9.2-6.2,13S280,494,280,494s-8.2,2.3-20.2,2.6c-12,0.3-113.9-2.9-124.8-3c-10.9-0.1-9.8-2.5-9.8-2.5l7.1-1.9
		c8.8-0.9,51.7-9.7,60.4-11.5c8.8-1.8,18.3-2.4,22.6-16.8s-1.8-39.2-1.8-39.2H312.5z"/>
	<path fill-rule="evenodd" clip-rule="evenodd" fill="#F7F8F8" d="M311.4,421.7c0,0,3.8,13.2,5.9,22.8c2,9.7,3.2,18.1,3.3,22.7
		s-0.7,9.2-6.2,13c-5.5,3.8-35.7,12.3-35.7,12.3s-8.2,2.3-20.2,2.6c-12,0.3-125.9-2.6-125.9-2.6s-5,0-6.4-0.6s-2.6-1.2,6.1-3.1
		c8.7-1.9,50.4-10.7,59.1-12.5c8.8-1.8,18.3-2.4,22.6-16.8s-1.5-37.8-1.5-37.8H311.4z"/>
	<path fill-rule="evenodd" clip-rule="evenodd" fill="#F7F8F8" d="M7.9,379.7l488.8-16.1v50c0,8.3-6.7,15-15,15H17.4
		c-7.6,0-13.5-6.5-12.8-14.1L7.9,379.7z"/>
	<path fill-rule="evenodd" clip-rule="evenodd" fill="#49525C" d="M7.9,379.7L35,100.2c0.6-6.3,5.3-11.4,11.4-12.5L480,5
		c8.7-1.7,16.8,5,16.8,13.9v344.7L7.9,379.7z"/>
	<polygon fill-rule="evenodd" clip-rule="evenodd" fill="#2DA9E0" points="55,106.9 476.3,26.6 476.3,343.8 30.6,358.5 	"/>
	<g opacity="0.5">
		<defs>
			<path id="SVGID_1_" opacity="0.5" d="M311.4,421.7c0,0,3.8,13.2,5.9,22.8c2,9.7,3.2,18.1,3.3,22.7s-0.7,9.2-6.2,13
				c-5.5,3.8-35.7,12.3-35.7,12.3s-8.2,2.3-20.2,2.6c-12,0.3-125.9-2.6-125.9-2.6s-5,0-6.4-0.6s-2.6-1.2,6.1-3.1
				c8.7-1.9,50.4-10.7,59.1-12.5c8.8-1.8,18.3-2.4,22.6-16.8s-1.5-37.8-1.5-37.8H311.4z"/>
		</defs>
		<clipPath id="SVGID_2_">
			<use xlink:href="#SVGID_1_"  overflow="visible"/>
		</clipPath>
		
			<rect x="193.2" y="428.6" clip-path="url(#SVGID_2_)" fill-rule="evenodd" clip-rule="evenodd" fill="#C1C0C0" width="152.2" height="14.8"/>
	</g>
</g>
</svg>
