<?xml version="1.0" encoding="utf-8"?>
<!-- Generator: Adobe Illustrator 18.1.1, SVG Export Plug-In . SVG Version: 6.00 Build 0)  -->
<!DOCTYPE svg PUBLIC "-//W3C//DTD SVG 1.1//EN" "http://www.w3.org/Graphics/SVG/1.1/DTD/svg11.dtd">
<svg version="1.1" id="Layer_1" xmlns="http://www.w3.org/2000/svg" xmlns:xlink="http://www.w3.org/1999/xlink" x="0px" y="0px"
	 viewBox="0 149.6 216 60.8" enable-background="new 0 149.6 216 60.8" xml:space="preserve">
<g>
	<path fill="#FFFFFF" d="M214.5,163.5c-1.6,2.5-4.5,4-7.6,5.9c-9.9,6-16.3,9.9-26.7,17c-9.2,6.3-17.5,12.5-25.6,18.6
		c-2.9,2.1-5.8,4.4-8.6,5.1c-4.6,1.1-10.2-1.7-11.1-7.1c-0.3-1.8,0.1-4.8,1.5-6.8c1.6-2.2,4.6-3.8,7.9-5.9
		c17.9-10.9,36.5-23.3,52.7-35.6c3.1-2.4,5.7-4.5,8.4-5c3.4-0.6,7.9,1,9.7,4.9C216.4,157.2,216.2,160.9,214.5,163.5z"/>
	<path fill="none" d="M214,163.4c-1.7,2.4-4.5,4-7.6,5.9c-9.8,6-16.1,9.9-26.5,16.9c-9.2,6.2-17.4,12.4-25.4,18.4
		c-2.8,2.1-5.7,4.4-8.5,5.1c-4.6,1.1-9.9-1.5-10.8-6.7c-0.3-1.8,0.2-4.7,1.6-6.6c1.6-2.2,4.6-3.8,7.9-5.8
		c17.8-10.9,36.2-23.1,52.2-35.3c3.1-2.4,5.7-4.4,8.4-5c3.4-0.6,7.7,0.9,9.5,4.6C216,157.3,215.8,160.9,214,163.4z"/>
	<g>
		<g>
			<path id="SVGID_1_" fill="#F7F8F8" d="M214.1,163.4c-1.6,2.4-4.5,4-7.6,5.9c-9.8,6-16.2,9.9-26.6,16.9
				c-9.2,6.3-17.4,12.5-25.4,18.4c-2.9,2.1-5.7,4.4-8.6,5.1c-4.6,1.1-10-1.5-10.9-6.8c-0.3-1.7,0.2-4.7,1.6-6.6
				c1.6-2.2,4.6-3.8,7.9-5.8c17.8-10.9,36.3-23.2,52.3-35.4c3.1-2.4,5.7-4.4,8.4-5c3.4-0.6,7.8,0.9,9.6,4.7
				C216.1,157.3,215.9,160.9,214.1,163.4z"/>
		</g>
		<g>
			<defs>
				<path id="SVGID_2_" d="M214.1,163.4c-1.6,2.4-4.5,4-7.6,5.9c-9.8,6-16.2,9.9-26.6,16.9c-9.2,6.3-17.4,12.5-25.4,18.4
					c-2.9,2.1-5.7,4.4-8.6,5.1c-4.6,1.1-10-1.5-10.9-6.8c-0.3-1.7,0.2-4.7,1.6-6.6c1.6-2.2,4.6-3.8,7.9-5.8
					c17.8-10.9,36.3-23.2,52.3-35.4c3.1-2.4,5.7-4.4,8.4-5c3.4-0.6,7.8,0.9,9.6,4.7C216.1,157.3,215.9,160.9,214.1,163.4z"/>
			</defs>
			<clipPath id="SVGID_3_">
				<use xlink:href="#SVGID_2_"  overflow="visible"/>
			</clipPath>
			<g clip-path="url(#SVGID_3_)">
				<polygon fill="#F7F8F8" points="226.9,197.8 228.5,197.3 212.6,135.3 210.9,135.8 				"/>
				<polygon fill="#F7F8F8" points="225,198.3 226.7,197.9 210.7,135.8 209.1,136.3 				"/>
				<polygon fill="#F7F8F8" points="223.2,198.8 224.8,198.3 208.9,136.3 207.2,136.8 				"/>
				<polygon fill="#F7F8F8" points="221.3,199.3 223,198.9 207,136.9 205.4,137.3 				"/>
				<polygon fill="#F7F8F8" points="219.4,199.8 221.1,199.4 205.2,137.3 203.5,137.8 				"/>
				<polygon fill="#F7F8F8" points="217.6,200.3 219.3,199.8 203.3,137.9 201.7,138.3 				"/>
				<polygon fill="#F7F8F8" points="215.7,200.9 217.4,200.4 201.5,138.4 199.8,138.8 				"/>
				<polygon fill="#F7F8F8" points="213.9,201.3 215.5,200.9 199.6,138.9 197.9,139.3 				"/>
				<polygon fill="#F7F8F8" points="212.1,201.9 213.7,201.4 197.8,139.4 196.1,139.8 				"/>
				<polygon fill="#F7F8F8" points="210.2,202.3 211.8,201.9 195.9,139.9 194.3,140.3 				"/>
				<polygon fill="#F7F8F8" points="208.4,202.9 210,202.4 194.1,140.4 192.4,140.9 				"/>
				<polygon fill="#F7F8F8" points="206.5,203.4 208.2,202.9 192.2,140.9 190.6,141.3 				"/>
				<polygon fill="#F7F8F8" points="204.6,203.9 206.3,203.4 190.4,141.4 188.7,141.9 				"/>
				<polygon fill="#F7F8F8" points="202.8,204.4 204.5,204 188.5,141.9 186.8,142.4 				"/>
				<polygon fill="#F7F8F8" points="200.9,204.9 202.6,204.4 186.7,142.4 185,142.9 				"/>
				<polygon fill="#F7F8F8" points="199.1,205.4 200.7,204.9 184.8,142.9 183.1,143.4 				"/>
				<polygon fill="#F7F8F8" points="197.2,205.9 198.9,205.4 183,143.4 181.3,143.9 				"/>
				<polygon fill="#F7F8F8" points="195.4,206.4 197,206 181.1,144 179.4,144.4 				"/>
				<polygon fill="#F7F8F8" points="193.5,206.9 195.2,206.5 179.2,144.4 177.6,144.9 				"/>
				<polygon fill="#F7F8F8" points="191.6,207.4 193.3,207 177.4,145 175.7,145.4 				"/>
				<polygon fill="#F7F8F8" points="189.8,208 191.5,207.5 175.5,145.5 173.9,145.9 				"/>
				<polygon fill="#F7F8F8" points="187.9,208.4 189.7,208 173.7,146 172,146.4 				"/>
				<polygon fill="#F7F8F8" points="186.1,209 187.8,208.5 171.9,146.5 170.2,147 				"/>
				<polygon fill="#F7F8F8" points="184.3,209.5 185.9,209 170,147 168.3,147.4 				"/>
				<polygon fill="#F7F8F8" points="182.4,210 184,209.5 168.1,147.5 166.5,148 				"/>
				<polygon fill="#F7F8F8" points="180.6,210.5 182.2,210 166.3,148 164.6,148.5 				"/>
				<polygon fill="#F7F8F8" points="178.7,211 180.4,210.5 164.4,148.5 162.8,149 				"/>
				<polygon fill="#F7F8F8" points="176.8,211.5 178.5,211.1 162.5,149 160.9,149.5 				"/>
				<polygon fill="#F7F8F8" points="175,212 176.7,211.5 160.7,149.5 159.1,150 				"/>
				<polygon fill="#F7F8F8" points="173.1,212.5 174.8,212.1 158.9,150.1 157.2,150.5 				"/>
				<polygon fill="#F7F8F8" points="171.2,213 172.9,212.6 156.9,150.6 155.2,151 				"/>
				<polygon fill="#F7F8F8" points="169.3,213.6 171,213.1 155.1,151.1 153.4,151.6 				"/>
				<polygon fill="#F7F8F8" points="167.5,214.1 169.1,213.6 153.2,151.6 151.5,152 				"/>
				<polygon fill="#F7F8F8" points="165.6,214.6 167.3,214.1 151.3,152.1 149.7,152.6 				"/>
				<polygon fill="#F7F8F8" points="163.8,215.1 165.4,214.6 149.5,152.6 147.8,153.1 				"/>
				<polygon fill="#F7F8F8" points="161.9,215.6 163.6,215.1 147.6,153.1 146,153.6 				"/>
				<polygon fill="#F7F8F8" points="160.1,216.1 161.7,215.7 145.8,153.6 144.1,154.1 				"/>
				<polygon fill="#F7F8F8" points="158.2,216.6 159.9,216.1 143.9,154.1 142.3,154.6 				"/>
				<polygon fill="#F7F8F8" points="156.3,217.1 158,216.7 142.1,154.7 140.4,155.1 				"/>
				<polygon fill="#F7F8F8" points="154.5,217.6 156.1,217.2 140.2,155.1 138.5,155.6 				"/>
				<polygon fill="#F7F8F8" points="152.7,218.1 154.3,217.7 138.4,155.7 136.7,156.1 				"/>
				<polygon fill="#F7F8F8" points="150.8,218.7 152.4,218.2 136.5,156.2 134.9,156.6 				"/>
				<polygon fill="#F7F8F8" points="149,219.1 150.6,218.7 134.7,156.7 133,157.1 				"/>
				<polygon fill="#F7F8F8" points="147.1,219.7 148.8,219.2 132.8,157.2 131.2,157.7 				"/>
				<polygon fill="#F7F8F8" points="145.2,220.2 146.9,219.7 131,157.7 129.3,158.1 				"/>
				<polygon fill="#F7F8F8" points="143.4,220.7 145.1,220.2 129.1,158.2 127.5,158.7 				"/>
				<polygon fill="#F7F8F8" points="141.5,221.2 143.2,220.7 127.3,158.7 125.6,159.1 				"/>
				<polygon fill="#F7F8F8" points="139.7,221.7 141.3,221.2 125.4,159.2 123.7,159.7 				"/>
				<polygon fill="#F7F8F8" points="137.8,222.2 139.5,221.8 123.6,159.7 121.9,160.2 				"/>
				<polygon fill="#F7F8F8" points="136,222.7 137.6,222.2 121.7,160.2 120,160.7 				"/>
			</g>
		</g>
	</g>
	<path opacity="0.3" fill="#C1C0C0" enable-background="new    " d="M213.1,163.3c-1.7,2.3-4.4,3.8-7.5,5.7
		c-9.6,5.9-15.9,9.8-26,16.7c-9,6.1-17.1,12.1-25,17.9c-2.8,2.1-5.6,4.3-8.3,5c-4.4,1.2-9.5-1-10.1-5.9c-0.2-1.6,0.4-4.3,1.8-6.2
		c1.6-2.1,4.5-3.7,7.7-5.7c17.4-10.7,35.5-22.8,51.3-34.7c3.1-2.3,5.7-4.3,8.2-4.9c3.3-0.7,7.3,0.5,9,4
		C215.1,157.5,214.8,160.8,213.1,163.3z"/>
	<polygon fill="#FFFFFF" points="154,194.5 154.3,194.6 168.2,185.2 168.3,185.5 169.3,184.7 169.2,184.5 169,184.7 168.9,184.5 
		168.7,184.3 168.9,184.1 168.8,184 167.7,184.7 167.8,184.9 154,194.2 	"/>
	<polygon fill="#FFFFFF" points="197.2,165.2 197.2,165.6 183.3,175 183.5,175.1 182.4,175.8 182.3,175.7 182.5,175.6 182.4,175.3 
		182.2,175.1 182,175.2 181.9,175.1 183,174.4 183.1,174.5 196.9,165.2 	"/>
</g>
<path fill="none" stroke="#FFFFFF" stroke-linecap="round" stroke-miterlimit="10" stroke-dasharray="8" d="M0,170.5
	c87.7-40.7,162.1-4.6,162.1-4.6"/>
</svg>
