<?xml version="1.0" encoding="utf-8"?>
<!-- Generator: Adobe Illustrator 18.1.0, SVG Export Plug-In . SVG Version: 6.00 Build 0)  -->
<!DOCTYPE svg PUBLIC "-//W3C//DTD SVG 1.1//EN" "http://www.w3.org/Graphics/SVG/1.1/DTD/svg11.dtd">
<svg version="1.1" id="Layer_1" xmlns="http://www.w3.org/2000/svg" xmlns:xlink="http://www.w3.org/1999/xlink" x="0px" y="0px"
	 viewBox="0 0 404 113.6" enable-background="new 0 0 404 113.6" xml:space="preserve">
<g>
	<path fill-rule="evenodd" clip-rule="evenodd" fill="#FFFFFF" d="M1.6,9.4C5.1,2.1,13.4-0.9,19.8,0.2c5.1,0.9,10,4.9,15.8,9.4
		c30.2,23.1,65,46.2,98.5,66.6c6.2,3.8,11.9,6.8,14.8,11c2.6,3.8,3.4,9.4,2.8,12.7c-1.7,10.1-12.1,15.3-20.7,13.2
		c-5.3-1.3-10.7-5.5-16.1-9.5c-15.1-11.3-30.5-23-47.8-34.7C47.6,55.7,35.6,48.3,17.1,37.1C11.2,33.4,5.8,30.6,2.8,26
		C-0.5,21-0.8,14.2,1.6,9.4z"/>
	<path fill-rule="evenodd" clip-rule="evenodd" fill="none" d="M2.2,9.7c3.4-7,11.5-9.8,17.8-8.6c5,1,9.9,4.9,15.7,9.3
		c30,22.9,64.5,45.8,97.7,66.1c6.1,3.7,11.8,6.7,14.7,10.9c2.6,3.7,3.5,9.1,3,12.4c-1.6,9.8-11.6,14.7-20.2,12.6
		c-5.3-1.3-10.6-5.5-15.9-9.5c-15-11.2-30.3-22.8-47.5-34.4C48.1,55.3,36.2,48,17.9,36.8c-5.9-3.6-11.2-6.5-14.3-11
		C0.3,21-0.1,14.4,2.2,9.7z"/>
	<g>
		<defs>
			<path id="SVGID_1_" d="M2,9.6C5.5,2.5,13.6-0.3,20,0.9c5,1,9.9,4.9,15.7,9.3c30,22.9,64.6,45.9,97.9,66.2
				c6.1,3.8,11.8,6.8,14.7,10.9c2.6,3.7,3.5,9.2,3,12.4c-1.6,9.9-11.7,14.8-20.3,12.7c-5.3-1.3-10.6-5.5-16-9.5
				c-15-11.2-30.3-22.8-47.5-34.5C48,55.4,36.1,48.1,17.7,36.8c-5.9-3.6-11.3-6.5-14.3-11C0.1,21-0.3,14.3,2,9.6z"/>
		</defs>
		<use xlink:href="#SVGID_1_"  overflow="visible" fill-rule="evenodd" clip-rule="evenodd" fill="#F7F8F8"/>
		<clipPath id="SVGID_2_">
			<use xlink:href="#SVGID_1_"  overflow="visible"/>
		</clipPath>
		<g clip-path="url(#SVGID_2_)">
			<polygon fill-rule="evenodd" clip-rule="evenodd" fill="#F7F8F8" points="9.4,-25.9 6.3,-26.8 -23.5,89.2 -20.4,90.1 			"/>
			<polygon fill-rule="evenodd" clip-rule="evenodd" fill="#F7F8F8" points="12.9,-25 9.8,-25.8 -20,90.2 -16.9,91 			"/>
			<polygon fill-rule="evenodd" clip-rule="evenodd" fill="#F7F8F8" points="16.3,-24 13.2,-24.9 -16.6,91.1 -13.5,92 			"/>
			<polygon fill-rule="evenodd" clip-rule="evenodd" fill="#F7F8F8" points="19.8,-23.1 16.7,-23.9 -13.1,92.1 -10,92.9 			"/>
			<polygon fill-rule="evenodd" clip-rule="evenodd" fill="#F7F8F8" points="23.3,-22.1 20.2,-23 -9.6,93 -6.5,93.9 			"/>
			<polygon fill-rule="evenodd" clip-rule="evenodd" fill="#F7F8F8" points="26.7,-21.2 23.6,-22 -6.2,93.9 -3.1,94.8 			"/>
			<polygon fill-rule="evenodd" clip-rule="evenodd" fill="#F7F8F8" points="30.2,-20.2 27.1,-21.1 -2.7,94.9 0.4,95.8 			"/>
			<polygon fill-rule="evenodd" clip-rule="evenodd" fill="#F7F8F8" points="33.7,-19.3 30.6,-20.1 0.8,95.9 3.9,96.7 			"/>
			<polygon fill-rule="evenodd" clip-rule="evenodd" fill="#F7F8F8" points="37.1,-18.3 34,-19.2 4.2,96.8 7.3,97.7 			"/>
			<polygon fill-rule="evenodd" clip-rule="evenodd" fill="#F7F8F8" points="40.6,-17.4 37.5,-18.2 7.7,97.8 10.8,98.6 			"/>
			<polygon fill-rule="evenodd" clip-rule="evenodd" fill="#F7F8F8" points="44,-16.4 40.9,-17.3 11.1,98.7 14.2,99.6 			"/>
			<polygon fill-rule="evenodd" clip-rule="evenodd" fill="#F7F8F8" points="47.5,-15.5 44.4,-16.3 14.6,99.7 17.7,100.5 			"/>
			<polygon fill-rule="evenodd" clip-rule="evenodd" fill="#F7F8F8" points="51,-14.5 47.9,-15.4 18.1,100.6 21.2,101.5 			"/>
			<polygon fill-rule="evenodd" clip-rule="evenodd" fill="#F7F8F8" points="54.5,-13.6 51.4,-14.4 21.5,101.6 24.7,102.4 			"/>
			<polygon fill-rule="evenodd" clip-rule="evenodd" fill="#F7F8F8" points="57.9,-12.6 54.8,-13.5 25,102.5 28.1,103.4 			"/>
			<polygon fill-rule="evenodd" clip-rule="evenodd" fill="#F7F8F8" points="61.4,-11.7 58.3,-12.5 28.5,103.4 31.6,104.3 			"/>
			<polygon fill-rule="evenodd" clip-rule="evenodd" fill="#F7F8F8" points="64.8,-10.7 61.7,-11.6 31.9,104.4 35,105.3 			"/>
			<polygon fill-rule="evenodd" clip-rule="evenodd" fill="#F7F8F8" points="68.3,-9.8 65.2,-10.6 35.4,105.4 38.5,106.2 			"/>
			<polygon fill-rule="evenodd" clip-rule="evenodd" fill="#F7F8F8" points="71.8,-8.8 68.7,-9.7 38.9,106.3 42,107.2 			"/>
			<polygon fill-rule="evenodd" clip-rule="evenodd" fill="#F7F8F8" points="75.3,-7.9 72.1,-8.7 42.3,107.3 45.5,108.1 			"/>
			<polygon fill-rule="evenodd" clip-rule="evenodd" fill="#F7F8F8" points="78.7,-6.9 75.6,-7.8 45.8,108.2 48.9,109.1 			"/>
			<polygon fill-rule="evenodd" clip-rule="evenodd" fill="#F7F8F8" points="82.2,-6 79.1,-6.8 49.2,109.2 52.4,110 			"/>
			<polygon fill-rule="evenodd" clip-rule="evenodd" fill="#F7F8F8" points="85.6,-5 82.5,-5.9 52.7,110.1 55.8,111 			"/>
			<polygon fill-rule="evenodd" clip-rule="evenodd" fill="#F7F8F8" points="89.1,-4.1 86,-4.9 56.2,111.1 59.3,111.9 			"/>
			<polygon fill-rule="evenodd" clip-rule="evenodd" fill="#F7F8F8" points="92.6,-3.1 89.5,-4 59.7,112 62.8,112.9 			"/>
			<polygon fill-rule="evenodd" clip-rule="evenodd" fill="#F7F8F8" points="96,-2.2 92.9,-3 63.1,112.9 66.2,113.8 			"/>
			<polygon fill-rule="evenodd" clip-rule="evenodd" fill="#F7F8F8" points="99.5,-1.2 96.4,-2.1 66.6,113.9 69.7,114.8 			"/>
			<polygon fill-rule="evenodd" clip-rule="evenodd" fill="#F7F8F8" points="103,-0.3 99.9,-1.1 70,114.9 73.2,115.7 			"/>
			<polygon fill-rule="evenodd" clip-rule="evenodd" fill="#F7F8F8" points="106.4,0.7 103.3,-0.2 73.5,115.8 76.6,116.7 			"/>
			<polygon fill-rule="evenodd" clip-rule="evenodd" fill="#F7F8F8" points="109.9,1.6 106.8,0.8 77,116.8 80.1,117.6 			"/>
			<polygon fill-rule="evenodd" clip-rule="evenodd" fill="#F7F8F8" points="113.6,2.6 110.4,1.8 80.6,117.8 83.7,118.6 			"/>
			<polygon fill-rule="evenodd" clip-rule="evenodd" fill="#F7F8F8" points="117,3.6 113.9,2.7 84.1,118.7 87.2,119.6 			"/>
			<polygon fill-rule="evenodd" clip-rule="evenodd" fill="#F7F8F8" points="120.5,4.5 117.4,3.7 87.6,119.7 90.7,120.5 			"/>
			<polygon fill-rule="evenodd" clip-rule="evenodd" fill="#F7F8F8" points="124,5.5 120.9,4.6 91.1,120.6 94.2,121.5 			"/>
			<polygon fill-rule="evenodd" clip-rule="evenodd" fill="#F7F8F8" points="127.4,6.4 124.3,5.6 94.5,121.6 97.6,122.4 			"/>
			<polygon fill-rule="evenodd" clip-rule="evenodd" fill="#F7F8F8" points="130.9,7.4 127.8,6.5 98,122.5 101.1,123.4 			"/>
			<polygon fill-rule="evenodd" clip-rule="evenodd" fill="#F7F8F8" points="134.4,8.3 131.2,7.5 101.4,123.5 104.5,124.3 			"/>
			<polygon fill-rule="evenodd" clip-rule="evenodd" fill="#F7F8F8" points="137.8,9.3 134.7,8.4 104.9,124.4 108,125.3 			"/>
			<polygon fill-rule="evenodd" clip-rule="evenodd" fill="#F7F8F8" points="141.3,10.2 138.2,9.4 108.4,125.4 111.5,126.2 			"/>
			<polygon fill-rule="evenodd" clip-rule="evenodd" fill="#F7F8F8" points="144.8,11.2 141.7,10.3 111.9,126.3 115,127.2 			"/>
			<polygon fill-rule="evenodd" clip-rule="evenodd" fill="#F7F8F8" points="148.2,12.1 145.1,11.3 115.3,127.3 118.4,128.1 			"/>
			<polygon fill-rule="evenodd" clip-rule="evenodd" fill="#F7F8F8" points="151.7,13.1 148.6,12.2 118.8,128.2 121.9,129.1 			"/>
			<polygon fill-rule="evenodd" clip-rule="evenodd" fill="#F7F8F8" points="155.1,14 152,13.2 122.2,129.2 125.3,130 			"/>
			<polygon fill-rule="evenodd" clip-rule="evenodd" fill="#F7F8F8" points="158.6,15 155.5,14.1 125.7,130.1 128.8,131 			"/>
			<polygon fill-rule="evenodd" clip-rule="evenodd" fill="#F7F8F8" points="162.1,15.9 159,15.1 129.2,131.1 132.3,131.9 			"/>
			<polygon fill-rule="evenodd" clip-rule="evenodd" fill="#F7F8F8" points="165.5,16.9 162.4,16 132.6,132 135.7,132.9 			"/>
			<polygon fill-rule="evenodd" clip-rule="evenodd" fill="#F7F8F8" points="169,17.8 165.9,17 136.1,133 139.2,133.8 			"/>
			<polygon fill-rule="evenodd" clip-rule="evenodd" fill="#F7F8F8" points="172.5,18.8 169.4,17.9 139.6,133.9 142.7,134.8 			"/>
			<polygon fill-rule="evenodd" clip-rule="evenodd" fill="#F7F8F8" points="175.9,19.7 172.8,18.9 143,134.9 146.1,135.7 			"/>
			<polygon fill-rule="evenodd" clip-rule="evenodd" fill="#F7F8F8" points="179.4,20.7 176.3,19.8 146.5,135.8 149.6,136.7 			"/>
		</g>
	</g>
	<path opacity="0.3" fill-rule="evenodd" clip-rule="evenodd" fill="#C1C0C0" d="M3.6,10.4C6.7,4,14.3,1.6,20.4,3
		c4.8,1.1,9.6,4.9,15.4,9.2c29.5,22.3,63.4,44.9,95.9,64.9c6,3.7,11.5,6.7,14.4,10.6c2.6,3.6,3.7,8.6,3.3,11.6
		c-1.2,9.1-10.7,13.3-18.9,11c-5.1-1.4-10.3-5.5-15.6-9.4C100.1,90,85.1,78.8,68.2,67.4c-19-12.9-30.7-20.1-48.7-31.2
		c-5.8-3.6-11-6.4-14.1-10.7C2.2,20.9,1.6,14.7,3.6,10.4z"/>
	<polygon fill="#FFFFFF" points="115.8,83.4 90,65.9 90.2,65.5 88.2,64.2 88,64.5 88.4,64.8 88.1,65.2 87.8,65.6 87.4,65.3 
		87.2,65.6 89.2,67 89.4,66.6 115.3,84.1 115.9,84 	"/>
	<polygon fill="#FFFFFF" points="35.6,29.1 61.5,46.6 61.7,46.3 63.7,47.6 63.5,47.9 63.1,47.6 62.8,48.1 62.5,48.5 63,48.7 
		62.8,49 60.7,47.7 61,47.4 35.1,29.9 35,29.2 	"/>
</g>
<path fill-rule="evenodd" clip-rule="evenodd" fill="none" stroke="#FFFFFF" stroke-width="2" stroke-linecap="round" stroke-miterlimit="10" stroke-dasharray="8" d="
	M100.7,30.4c0,0,139.2-67.5,303.2,8.6"/>
</svg>
