<?xml version="1.0" encoding="utf-8"?>
<!-- Generator: Adobe Illustrator 18.1.1, SVG Export Plug-In . SVG Version: 6.00 Build 0)  -->
<!DOCTYPE svg PUBLIC "-//W3C//DTD SVG 1.1//EN" "http://www.w3.org/Graphics/SVG/1.1/DTD/svg11.dtd">
<svg version="1.1" id="Layer_1" xmlns="http://www.w3.org/2000/svg" xmlns:xlink="http://www.w3.org/1999/xlink" x="0px" y="0px"
	 viewBox="-227.4 189.1 1099.4 502.9" enable-background="new -227.4 189.1 1099.4 502.9" xml:space="preserve">
<path fill="none" stroke="#FFFFFF" stroke-width="5" stroke-miterlimit="10" d="M854.8,263.7c-8,12.3-22.5,19.8-38.2,29.7
	c-49.5,29.9-81.5,49.7-133.7,85c-46.2,31.3-87.4,62.6-127.8,92.8c-14.4,10.7-28.9,21.9-43,25.4c-23,5.6-50.8-8.3-55.3-35.3
	c-1.6-8.8,0.5-23.8,7.5-34c7.8-11.2,23-19.2,39.6-29.4c89.6-54.5,182.6-116.3,263.3-178c15.5-12,28.6-22.7,42.2-25.1
	c17.1-2.9,39.3,5.1,48.7,24.6C864.5,232.1,863.7,250.3,854.8,263.7z"/>
<polygon fill="#FFFFFF" points="552.5,418.7 554.1,419 623.3,372.2 623.9,373.3 629.2,369.5 628.7,368.7 627.6,369.5 626.8,368.5 
	626,367.4 627.1,366.6 626.5,365.8 621.2,369.3 621.7,370.3 552.8,417.1 "/>
<polygon fill="#FFFFFF" points="768.8,272.2 768.5,274.1 699.3,320.9 700.1,321.7 694.4,325.1 693.9,324.3 695.2,323.8 694.4,322.7 
	693.6,321.4 692.6,322.2 692,321.4 697.4,317.9 697.9,318.7 767.2,272 "/>
<path fill="none" stroke="#FFFFFF" stroke-width="5" stroke-linecap="round" stroke-miterlimit="10" stroke-dasharray="40" d="
	M-217.4,298.4c438.4-203.4,810.5-23,810.5-23"/>
<g>
	<line fill="none" stroke="#FFFFFF" stroke-width="3" stroke-miterlimit="10" x1="837.4" y1="500.2" x2="837.4" y2="519.3"/>
	<line fill="none" stroke="#FFFFFF" stroke-width="3" stroke-miterlimit="10" x1="839.7" y1="502.1" x2="837.4" y2="504.3"/>
	<line fill="none" stroke="#FFFFFF" stroke-width="3" stroke-miterlimit="10" x1="835.2" y1="502.1" x2="837.4" y2="504.3"/>
	<line fill="none" stroke="#FFFFFF" stroke-width="3" stroke-miterlimit="10" x1="837.4" y1="519.3" x2="837.4" y2="500.2"/>
	<line fill="none" stroke="#FFFFFF" stroke-width="3" stroke-miterlimit="10" x1="835.2" y1="517.4" x2="837.4" y2="515.2"/>
	<line fill="none" stroke="#FFFFFF" stroke-width="3" stroke-miterlimit="10" x1="839.7" y1="517.4" x2="837.4" y2="515.2"/>
	<g>
		<line fill="none" stroke="#FFFFFF" stroke-width="3" stroke-miterlimit="10" x1="829" y1="505.2" x2="845.8" y2="514.4"/>
		<line fill="none" stroke="#FFFFFF" stroke-width="3" stroke-miterlimit="10" x1="831.8" y1="504.1" x2="832.7" y2="507.1"/>
		<line fill="none" stroke="#FFFFFF" stroke-width="3" stroke-miterlimit="10" x1="829.6" y1="508" x2="832.7" y2="507.2"/>
		<line fill="none" stroke="#FFFFFF" stroke-width="3" stroke-miterlimit="10" x1="845.8" y1="514.4" x2="829.1" y2="505.1"/>
		<line fill="none" stroke="#FFFFFF" stroke-width="3" stroke-miterlimit="10" x1="843" y1="515.4" x2="842.1" y2="512.4"/>
		<line fill="none" stroke="#FFFFFF" stroke-width="3" stroke-miterlimit="10" x1="845.2" y1="511.5" x2="842.1" y2="512.3"/>
	</g>
	<g>
		<line fill="none" stroke="#FFFFFF" stroke-width="3" stroke-miterlimit="10" x1="845.8" y1="505.2" x2="829.1" y2="514.4"/>
		<line fill="none" stroke="#FFFFFF" stroke-width="3" stroke-miterlimit="10" x1="843" y1="504.1" x2="842.1" y2="507.1"/>
		<line fill="none" stroke="#FFFFFF" stroke-width="3" stroke-miterlimit="10" x1="845.2" y1="508" x2="842.1" y2="507.2"/>
		<line fill="none" stroke="#FFFFFF" stroke-width="3" stroke-miterlimit="10" x1="829" y1="514.4" x2="845.8" y2="505.1"/>
		<line fill="none" stroke="#FFFFFF" stroke-width="3" stroke-miterlimit="10" x1="831.8" y1="515.4" x2="832.7" y2="512.4"/>
		<line fill="none" stroke="#FFFFFF" stroke-width="3" stroke-miterlimit="10" x1="829.6" y1="511.5" x2="832.7" y2="512.3"/>
	</g>
</g>
<g>
	<line fill="none" stroke="#FFFFFF" stroke-width="3" stroke-miterlimit="10" x1="405.6" y1="577.3" x2="405.6" y2="596.4"/>
	<line fill="none" stroke="#FFFFFF" stroke-width="3" stroke-miterlimit="10" x1="407.9" y1="579.2" x2="405.6" y2="581.4"/>
	<line fill="none" stroke="#FFFFFF" stroke-width="3" stroke-miterlimit="10" x1="403.4" y1="579.2" x2="405.6" y2="581.4"/>
	<line fill="none" stroke="#FFFFFF" stroke-width="3" stroke-miterlimit="10" x1="405.6" y1="596.4" x2="405.6" y2="577.3"/>
	<line fill="none" stroke="#FFFFFF" stroke-width="3" stroke-miterlimit="10" x1="403.4" y1="594.4" x2="405.6" y2="592.2"/>
	<line fill="none" stroke="#FFFFFF" stroke-width="3" stroke-miterlimit="10" x1="407.9" y1="594.4" x2="405.6" y2="592.2"/>
	<g>
		<line fill="none" stroke="#FFFFFF" stroke-width="3" stroke-miterlimit="10" x1="397.3" y1="582.2" x2="414" y2="591.4"/>
		<line fill="none" stroke="#FFFFFF" stroke-width="3" stroke-miterlimit="10" x1="400" y1="581.2" x2="400.9" y2="584.2"/>
		<line fill="none" stroke="#FFFFFF" stroke-width="3" stroke-miterlimit="10" x1="397.9" y1="585.1" x2="400.9" y2="584.2"/>
		<line fill="none" stroke="#FFFFFF" stroke-width="3" stroke-miterlimit="10" x1="414" y1="591.4" x2="397.3" y2="582.2"/>
		<line fill="none" stroke="#FFFFFF" stroke-width="3" stroke-miterlimit="10" x1="411.2" y1="592.4" x2="410.4" y2="589.4"/>
		<line fill="none" stroke="#FFFFFF" stroke-width="3" stroke-miterlimit="10" x1="413.4" y1="588.5" x2="410.4" y2="589.4"/>
	</g>
	<g>
		<line fill="none" stroke="#FFFFFF" stroke-width="3" stroke-miterlimit="10" x1="414" y1="582.2" x2="397.3" y2="591.4"/>
		<line fill="none" stroke="#FFFFFF" stroke-width="3" stroke-miterlimit="10" x1="411.2" y1="581.2" x2="410.4" y2="584.2"/>
		<line fill="none" stroke="#FFFFFF" stroke-width="3" stroke-miterlimit="10" x1="413.4" y1="585.1" x2="410.4" y2="584.2"/>
		<line fill="none" stroke="#FFFFFF" stroke-width="3" stroke-miterlimit="10" x1="397.3" y1="591.4" x2="414" y2="582.2"/>
		<line fill="none" stroke="#FFFFFF" stroke-width="3" stroke-miterlimit="10" x1="400" y1="592.4" x2="400.9" y2="589.4"/>
		<line fill="none" stroke="#FFFFFF" stroke-width="3" stroke-miterlimit="10" x1="397.9" y1="588.5" x2="400.9" y2="589.4"/>
	</g>
</g>
<g>
	<line fill="none" stroke="#FFFFFF" stroke-width="3" stroke-miterlimit="10" x1="699.6" y1="522.7" x2="699.6" y2="567.7"/>
	<line fill="none" stroke="#FFFFFF" stroke-width="3" stroke-miterlimit="10" x1="704.9" y1="527.2" x2="699.6" y2="532.5"/>
	<line fill="none" stroke="#FFFFFF" stroke-width="3" stroke-miterlimit="10" x1="694.3" y1="527.2" x2="699.6" y2="532.5"/>
	<line fill="none" stroke="#FFFFFF" stroke-width="3" stroke-miterlimit="10" x1="699.6" y1="567.7" x2="699.6" y2="522.7"/>
	<line fill="none" stroke="#FFFFFF" stroke-width="3" stroke-miterlimit="10" x1="694.3" y1="563.2" x2="699.6" y2="558"/>
	<line fill="none" stroke="#FFFFFF" stroke-width="3" stroke-miterlimit="10" x1="704.9" y1="563.2" x2="699.6" y2="558"/>
	<g>
		<line fill="none" stroke="#FFFFFF" stroke-width="3" stroke-miterlimit="10" x1="679.9" y1="534.4" x2="719.3" y2="556.1"/>
		<line fill="none" stroke="#FFFFFF" stroke-width="3" stroke-miterlimit="10" x1="686.4" y1="531.9" x2="688.5" y2="539.1"/>
		<line fill="none" stroke="#FFFFFF" stroke-width="3" stroke-miterlimit="10" x1="681.3" y1="541.2" x2="688.5" y2="539.1"/>
		<line fill="none" stroke="#FFFFFF" stroke-width="3" stroke-miterlimit="10" x1="719.3" y1="556.1" x2="679.9" y2="534.3"/>
		<line fill="none" stroke="#FFFFFF" stroke-width="3" stroke-miterlimit="10" x1="712.8" y1="558.5" x2="710.7" y2="551.4"/>
		<line fill="none" stroke="#FFFFFF" stroke-width="3" stroke-miterlimit="10" x1="717.9" y1="549.3" x2="710.8" y2="551.3"/>
	</g>
	<g>
		<line fill="none" stroke="#FFFFFF" stroke-width="3" stroke-miterlimit="10" x1="719.3" y1="534.4" x2="679.9" y2="556.1"/>
		<line fill="none" stroke="#FFFFFF" stroke-width="3" stroke-miterlimit="10" x1="712.8" y1="531.9" x2="710.7" y2="539.1"/>
		<line fill="none" stroke="#FFFFFF" stroke-width="3" stroke-miterlimit="10" x1="717.9" y1="541.2" x2="710.8" y2="539.1"/>
		<line fill="none" stroke="#FFFFFF" stroke-width="3" stroke-miterlimit="10" x1="679.9" y1="556.1" x2="719.3" y2="534.3"/>
		<line fill="none" stroke="#FFFFFF" stroke-width="3" stroke-miterlimit="10" x1="686.4" y1="558.5" x2="688.5" y2="551.4"/>
		<line fill="none" stroke="#FFFFFF" stroke-width="3" stroke-miterlimit="10" x1="681.3" y1="549.3" x2="688.5" y2="551.3"/>
	</g>
</g>
<g>
	<line fill="none" stroke="#FFFFFF" stroke-width="3" stroke-miterlimit="10" x1="221.8" y1="359.3" x2="221.8" y2="404.3"/>
	<line fill="none" stroke="#FFFFFF" stroke-width="3" stroke-miterlimit="10" x1="227.1" y1="363.8" x2="221.8" y2="369.1"/>
	<line fill="none" stroke="#FFFFFF" stroke-width="3" stroke-miterlimit="10" x1="216.5" y1="363.8" x2="221.8" y2="369.1"/>
	<line fill="none" stroke="#FFFFFF" stroke-width="3" stroke-miterlimit="10" x1="221.8" y1="404.3" x2="221.8" y2="359.3"/>
	<line fill="none" stroke="#FFFFFF" stroke-width="3" stroke-miterlimit="10" x1="216.5" y1="399.8" x2="221.8" y2="394.5"/>
	<line fill="none" stroke="#FFFFFF" stroke-width="3" stroke-miterlimit="10" x1="227.1" y1="399.8" x2="221.8" y2="394.5"/>
	<g>
		<line fill="none" stroke="#FFFFFF" stroke-width="3" stroke-miterlimit="10" x1="202.1" y1="371" x2="241.5" y2="392.7"/>
		<line fill="none" stroke="#FFFFFF" stroke-width="3" stroke-miterlimit="10" x1="208.6" y1="368.5" x2="210.7" y2="375.6"/>
		<line fill="none" stroke="#FFFFFF" stroke-width="3" stroke-miterlimit="10" x1="203.5" y1="377.7" x2="210.6" y2="375.7"/>
		<line fill="none" stroke="#FFFFFF" stroke-width="3" stroke-miterlimit="10" x1="241.5" y1="392.6" x2="202.1" y2="370.9"/>
		<line fill="none" stroke="#FFFFFF" stroke-width="3" stroke-miterlimit="10" x1="235" y1="395.1" x2="232.9" y2="388"/>
		<line fill="none" stroke="#FFFFFF" stroke-width="3" stroke-miterlimit="10" x1="240.1" y1="385.8" x2="233" y2="387.9"/>
	</g>
	<g>
		<line fill="none" stroke="#FFFFFF" stroke-width="3" stroke-miterlimit="10" x1="241.5" y1="371" x2="202.1" y2="392.7"/>
		<line fill="none" stroke="#FFFFFF" stroke-width="3" stroke-miterlimit="10" x1="235" y1="368.5" x2="232.9" y2="375.6"/>
		<line fill="none" stroke="#FFFFFF" stroke-width="3" stroke-miterlimit="10" x1="240.1" y1="377.7" x2="233" y2="375.7"/>
		<line fill="none" stroke="#FFFFFF" stroke-width="3" stroke-miterlimit="10" x1="202.1" y1="392.6" x2="241.5" y2="370.9"/>
		<line fill="none" stroke="#FFFFFF" stroke-width="3" stroke-miterlimit="10" x1="208.6" y1="395.1" x2="210.7" y2="388"/>
		<line fill="none" stroke="#FFFFFF" stroke-width="3" stroke-miterlimit="10" x1="203.5" y1="385.8" x2="210.6" y2="387.9"/>
	</g>
</g>
<g>
	<line fill="none" stroke="#FFFFFF" stroke-width="3" stroke-miterlimit="10" x1="629.2" y1="209" x2="629.2" y2="241.1"/>
	<line fill="none" stroke="#FFFFFF" stroke-width="3" stroke-miterlimit="10" x1="634.5" y1="213.6" x2="629.2" y2="218.8"/>
	<line fill="none" stroke="#FFFFFF" stroke-width="3" stroke-miterlimit="10" x1="623.9" y1="213.6" x2="629.2" y2="218.8"/>
	<line fill="none" stroke="#FFFFFF" stroke-width="3" stroke-miterlimit="10" x1="629.2" y1="241.1" x2="629.2" y2="209"/>
	<line fill="none" stroke="#FFFFFF" stroke-width="3" stroke-miterlimit="10" x1="623.9" y1="236.5" x2="629.2" y2="231.3"/>
	<line fill="none" stroke="#FFFFFF" stroke-width="3" stroke-miterlimit="10" x1="634.5" y1="236.5" x2="629.2" y2="231.3"/>
	<line fill="none" stroke="#FFFFFF" stroke-width="3" stroke-miterlimit="10" x1="645.2" y1="225" x2="613.2" y2="225"/>
	<line fill="none" stroke="#FFFFFF" stroke-width="3" stroke-miterlimit="10" x1="640.7" y1="230.3" x2="635.4" y2="225.1"/>
	<line fill="none" stroke="#FFFFFF" stroke-width="3" stroke-miterlimit="10" x1="640.7" y1="219.8" x2="635.4" y2="225"/>
	<line fill="none" stroke="#FFFFFF" stroke-width="3" stroke-miterlimit="10" x1="613.2" y1="225.1" x2="645.2" y2="225.1"/>
	<line fill="none" stroke="#FFFFFF" stroke-width="3" stroke-miterlimit="10" x1="617.7" y1="219.8" x2="623" y2="225"/>
	<line fill="none" stroke="#FFFFFF" stroke-width="3" stroke-miterlimit="10" x1="617.7" y1="230.3" x2="623" y2="225.1"/>
</g>
<g>
	<line fill="none" stroke="#FFFFFF" stroke-width="3" stroke-miterlimit="10" x1="381.2" y1="349.8" x2="381.2" y2="381.8"/>
	<line fill="none" stroke="#FFFFFF" stroke-width="3" stroke-miterlimit="10" x1="386.5" y1="354.3" x2="381.3" y2="359.6"/>
	<line fill="none" stroke="#FFFFFF" stroke-width="3" stroke-miterlimit="10" x1="376" y1="354.3" x2="381.2" y2="359.6"/>
	<line fill="none" stroke="#FFFFFF" stroke-width="3" stroke-miterlimit="10" x1="381.3" y1="381.8" x2="381.3" y2="349.8"/>
	<line fill="none" stroke="#FFFFFF" stroke-width="3" stroke-miterlimit="10" x1="376" y1="377.3" x2="381.2" y2="372"/>
	<line fill="none" stroke="#FFFFFF" stroke-width="3" stroke-miterlimit="10" x1="386.5" y1="377.3" x2="381.3" y2="372"/>
	<line fill="none" stroke="#FFFFFF" stroke-width="3" stroke-miterlimit="10" x1="397.3" y1="365.7" x2="365.2" y2="365.7"/>
	<line fill="none" stroke="#FFFFFF" stroke-width="3" stroke-miterlimit="10" x1="392.7" y1="371.1" x2="387.5" y2="365.8"/>
	<line fill="none" stroke="#FFFFFF" stroke-width="3" stroke-miterlimit="10" x1="392.7" y1="360.5" x2="387.5" y2="365.7"/>
	<line fill="none" stroke="#FFFFFF" stroke-width="3" stroke-miterlimit="10" x1="365.2" y1="365.8" x2="397.3" y2="365.8"/>
	<line fill="none" stroke="#FFFFFF" stroke-width="3" stroke-miterlimit="10" x1="369.8" y1="360.5" x2="375" y2="365.7"/>
	<line fill="none" stroke="#FFFFFF" stroke-width="3" stroke-miterlimit="10" x1="369.8" y1="371.1" x2="375" y2="365.8"/>
</g>
<g>
	<line fill="none" stroke="#FFFFFF" stroke-width="3" stroke-miterlimit="10" x1="224.4" y1="545.2" x2="224.4" y2="577.3"/>
	<line fill="none" stroke="#FFFFFF" stroke-width="3" stroke-miterlimit="10" x1="229.7" y1="549.8" x2="224.5" y2="555"/>
	<line fill="none" stroke="#FFFFFF" stroke-width="3" stroke-miterlimit="10" x1="219.2" y1="549.8" x2="224.4" y2="555"/>
	<line fill="none" stroke="#FFFFFF" stroke-width="3" stroke-miterlimit="10" x1="224.5" y1="577.3" x2="224.5" y2="545.2"/>
	<line fill="none" stroke="#FFFFFF" stroke-width="3" stroke-miterlimit="10" x1="219.2" y1="572.7" x2="224.4" y2="567.5"/>
	<line fill="none" stroke="#FFFFFF" stroke-width="3" stroke-miterlimit="10" x1="229.7" y1="572.7" x2="224.5" y2="567.5"/>
	<line fill="none" stroke="#FFFFFF" stroke-width="3" stroke-miterlimit="10" x1="240.5" y1="561.2" x2="208.4" y2="561.2"/>
	<line fill="none" stroke="#FFFFFF" stroke-width="3" stroke-miterlimit="10" x1="235.9" y1="566.5" x2="230.7" y2="561.3"/>
	<line fill="none" stroke="#FFFFFF" stroke-width="3" stroke-miterlimit="10" x1="235.9" y1="556" x2="230.7" y2="561.2"/>
	<line fill="none" stroke="#FFFFFF" stroke-width="3" stroke-miterlimit="10" x1="208.4" y1="561.3" x2="240.5" y2="561.3"/>
	<line fill="none" stroke="#FFFFFF" stroke-width="3" stroke-miterlimit="10" x1="213" y1="556" x2="218.2" y2="561.2"/>
	<line fill="none" stroke="#FFFFFF" stroke-width="3" stroke-miterlimit="10" x1="213" y1="566.5" x2="218.2" y2="561.3"/>
</g>
<g>
	<line fill="none" stroke="#FFFFFF" stroke-width="3" stroke-miterlimit="10" x1="593.1" y1="617.6" x2="593.1" y2="649.6"/>
	<line fill="none" stroke="#FFFFFF" stroke-width="3" stroke-miterlimit="10" x1="598.4" y1="622.1" x2="593.2" y2="627.4"/>
	<line fill="none" stroke="#FFFFFF" stroke-width="3" stroke-miterlimit="10" x1="587.8" y1="622.1" x2="593.1" y2="627.4"/>
	<line fill="none" stroke="#FFFFFF" stroke-width="3" stroke-miterlimit="10" x1="593.2" y1="649.6" x2="593.2" y2="617.6"/>
	<line fill="none" stroke="#FFFFFF" stroke-width="3" stroke-miterlimit="10" x1="587.8" y1="645.1" x2="593.1" y2="639.8"/>
	<line fill="none" stroke="#FFFFFF" stroke-width="3" stroke-miterlimit="10" x1="598.4" y1="645.1" x2="593.2" y2="639.8"/>
	<line fill="none" stroke="#FFFFFF" stroke-width="3" stroke-miterlimit="10" x1="609.1" y1="633.6" x2="577.1" y2="633.6"/>
	<line fill="none" stroke="#FFFFFF" stroke-width="3" stroke-miterlimit="10" x1="604.6" y1="638.9" x2="599.4" y2="633.6"/>
	<line fill="none" stroke="#FFFFFF" stroke-width="3" stroke-miterlimit="10" x1="604.6" y1="628.3" x2="599.4" y2="633.6"/>
	<line fill="none" stroke="#FFFFFF" stroke-width="3" stroke-miterlimit="10" x1="577.1" y1="633.6" x2="609.1" y2="633.6"/>
	<line fill="none" stroke="#FFFFFF" stroke-width="3" stroke-miterlimit="10" x1="581.6" y1="628.3" x2="586.9" y2="633.6"/>
	<line fill="none" stroke="#FFFFFF" stroke-width="3" stroke-miterlimit="10" x1="581.6" y1="638.9" x2="586.9" y2="633.6"/>
</g>
<g>
	<line fill="none" stroke="#FFFFFF" stroke-width="3" stroke-miterlimit="10" x1="815.1" y1="383.8" x2="815.1" y2="415.8"/>
	<line fill="none" stroke="#FFFFFF" stroke-width="3" stroke-miterlimit="10" x1="820.4" y1="388.3" x2="815.2" y2="393.5"/>
	<line fill="none" stroke="#FFFFFF" stroke-width="3" stroke-miterlimit="10" x1="809.9" y1="388.3" x2="815.1" y2="393.5"/>
	<line fill="none" stroke="#FFFFFF" stroke-width="3" stroke-miterlimit="10" x1="815.2" y1="415.8" x2="815.2" y2="383.8"/>
	<line fill="none" stroke="#FFFFFF" stroke-width="3" stroke-miterlimit="10" x1="809.9" y1="411.3" x2="815.1" y2="406"/>
	<line fill="none" stroke="#FFFFFF" stroke-width="3" stroke-miterlimit="10" x1="820.4" y1="411.3" x2="815.2" y2="406"/>
	<line fill="none" stroke="#FFFFFF" stroke-width="3" stroke-miterlimit="10" x1="831.2" y1="399.7" x2="799.1" y2="399.7"/>
	<line fill="none" stroke="#FFFFFF" stroke-width="3" stroke-miterlimit="10" x1="826.6" y1="405.1" x2="821.4" y2="399.8"/>
	<line fill="none" stroke="#FFFFFF" stroke-width="3" stroke-miterlimit="10" x1="826.6" y1="394.5" x2="821.4" y2="399.7"/>
	<line fill="none" stroke="#FFFFFF" stroke-width="3" stroke-miterlimit="10" x1="799.1" y1="399.8" x2="831.2" y2="399.8"/>
	<line fill="none" stroke="#FFFFFF" stroke-width="3" stroke-miterlimit="10" x1="803.7" y1="394.5" x2="808.9" y2="399.7"/>
	<line fill="none" stroke="#FFFFFF" stroke-width="3" stroke-miterlimit="10" x1="803.7" y1="405.1" x2="808.9" y2="399.8"/>
</g>
</svg>
