<?xml version="1.0" encoding="utf-8"?>
<!-- Generator: Adobe Illustrator 18.1.1, SVG Export Plug-In . SVG Version: 6.00 Build 0)  -->
<!DOCTYPE svg PUBLIC "-//W3C//DTD SVG 1.1//EN" "http://www.w3.org/Graphics/SVG/1.1/DTD/svg11.dtd">
<svg version="1.1" id="Layer_1" xmlns="http://www.w3.org/2000/svg" xmlns:xlink="http://www.w3.org/1999/xlink" x="0px" y="0px"
	 viewBox="0 235.9 216 113.7" enable-background="new 0 235.9 216 113.7" xml:space="preserve">
<path fill="none" stroke="#FFFFFF" stroke-miterlimit="10" d="M161.5,268.4c4.5,2.5,7.3,4.8,6.8,6c-0.7,1.8-8.7,0.2-17.8-3.5
	c-9.1-3.7-15.9-8.2-15.1-9.9c0.5-1.2,4.1-0.9,9.2,0.5"/>
<circle fill="none" stroke="#FFFFFF" stroke-miterlimit="10" cx="151.9" cy="267.7" r="9.6"/>
<path fill="none" stroke="#FFFFFF" stroke-miterlimit="10" d="M166.7,271.7c1.3,1.1,1.9,2.1,1.6,2.6c-0.7,1.7-8.7,0.2-17.8-3.5
	s-15.9-8.1-15.1-9.9c0.3-0.6,1.3-0.8,2.9-0.7"/>
<path fill="none" stroke="#FFFFFF" stroke-linecap="round" stroke-miterlimit="10" stroke-dasharray="8" d="M26,314.8
	c47.1-39,100.7-43.1,100.7-43.1"/>
<circle fill="#FFFFFF" cx="149.6" cy="328.2" r="1.2"/>
<circle fill="#FFFFFF" cx="140.3" cy="298.5" r="1.2"/>
<circle fill="#FFFFFF" cx="126.7" cy="310.2" r="2.3"/>
<circle fill="#FFFFFF" cx="57.7" cy="241.6" r="2.3"/>
<circle fill="#FFFFFF" cx="111.7" cy="328.2" r="1.2"/>
<circle fill="#FFFFFF" cx="122.6" cy="293.3" r="1.2"/>
<circle fill="#FFFFFF" cx="32.8" cy="292.1" r="1.2"/>
<circle fill="#FFFFFF" cx="40.7" cy="332.8" r="1.2"/>
<circle fill="#FFFFFF" cx="1.2" cy="298.5" r="1.2"/>
<circle fill="#FFFFFF" cx="32.8" cy="349.6" r="1.2"/>
<circle fill="#FFFFFF" cx="89.3" cy="311.3" r="1.2"/>
<circle fill="#FFFFFF" cx="118.5" cy="242.8" r="1.2"/>
<circle fill="#FFFFFF" cx="88.2" cy="249.3" r="1.2"/>
<circle fill="#FFFFFF" cx="81.3" cy="266.5" r="1.2"/>
<circle fill="#FFFFFF" cx="213.7" cy="238.2" r="2.3"/>
<circle fill="#FFFFFF" cx="200.6" cy="266.8" r="1.2"/>
<circle fill="#FFFFFF" cx="184.9" cy="257" r="1.2"/>
<polygon fill="none" stroke="#FFFFFF" stroke-miterlimit="10" points="189.3,298.9 189.3,304.6 188.5,304.1 188.5,299.4 "/>
<polygon fill="none" stroke="#FFFFFF" stroke-miterlimit="10" points="187.8,299.9 187.8,303.6 187.3,303.3 187.3,300.2 "/>
<path fill="none" stroke="#FFFFFF" stroke-miterlimit="10" d="M190.3,298.1v3.8v3.8c10.4,1.3,17.1,2.7,24.7-3.8
	C207.3,295.4,200.7,296.8,190.3,298.1z"/>
<path fill="none" stroke="#FFFFFF" stroke-miterlimit="10" d="M186.2,309v1.3l6.7-0.9l3.3-3.2c-1.8-0.2-3.8-0.5-5.9-0.7L186.2,309z"
	/>
<path fill="none" stroke="#FFFFFF" stroke-miterlimit="10" d="M186.3,293.3v1.3l4,3.4c2.1-0.3,4.1-0.5,5.9-0.7l-3.3-3.2L186.3,293.3
	z"/>
</svg>
