<?xml version="1.0" encoding="utf-8"?>
<!-- Generator: Adobe Illustrator 18.1.0, SVG Export Plug-In . SVG Version: 6.00 Build 0)  -->
<!DOCTYPE svg PUBLIC "-//W3C//DTD SVG 1.1//EN" "http://www.w3.org/Graphics/SVG/1.1/DTD/svg11.dtd">
<svg version="1.1" id="Layer_1" xmlns="http://www.w3.org/2000/svg" xmlns:xlink="http://www.w3.org/1999/xlink" x="0px" y="0px"
	 viewBox="0 113.3 500 273.3" enable-background="new 0 113.3 500 273.3" xml:space="preserve">
<path fill="none" stroke="#FFFFFF" stroke-width="2" stroke-miterlimit="10" d="M165.2,176.3c11.7-3.2,20.1-3.9,21.2-1.2
	c1.7,4.1-14,14.4-35,23s-39.4,12.2-41.1,8.1c-1.1-2.7,5.3-8.1,15.8-13.9"/>
<circle fill="none" stroke="#FFFFFF" stroke-width="2" stroke-miterlimit="10" cx="148.3" cy="190.7" r="22.2"/>
<path fill="none" stroke="#FFFFFF" stroke-width="2" stroke-miterlimit="10" d="M179.8,173.4c3.6-0.3,5.9,0.3,6.6,1.6
	c1.8,4.2-14,14.4-35,23c-21,8.6-39.5,12.1-41.1,8.1c-0.5-1.3,0.8-3.5,3.8-6.1"/>
<path fill="none" stroke="#FFFFFF" stroke-width="2" stroke-linecap="round" stroke-miterlimit="10" stroke-dasharray="8" d="
	M206.8,200.1c0,0,123.9,9.4,233,99.7"/>
<circle fill="#FFFFFF" cx="153.7" cy="330.8" r="2.7"/>
<circle fill="#FFFFFF" cx="175.2" cy="262.1" r="2.7"/>
<circle fill="#FFFFFF" cx="206.8" cy="289" r="5.4"/>
<circle fill="#FFFFFF" cx="366.4" cy="130.3" r="5.4"/>
<circle fill="#FFFFFF" cx="241.4" cy="330.8" r="2.7"/>
<circle fill="#FFFFFF" cx="216.2" cy="249.9" r="2.7"/>
<circle fill="#FFFFFF" cx="424" cy="247.2" r="2.7"/>
<circle fill="#FFFFFF" cx="405.8" cy="341.5" r="2.7"/>
<circle fill="#FFFFFF" cx="497.3" cy="262.1" r="2.7"/>
<circle fill="#FFFFFF" cx="424" cy="380.2" r="2.7"/>
<circle fill="#FFFFFF" cx="293.2" cy="291.7" r="2.7"/>
<circle fill="#FFFFFF" cx="225.6" cy="133" r="2.7"/>
<circle fill="#FFFFFF" cx="295.9" cy="148.2" r="2.7"/>
<circle fill="#FFFFFF" cx="311.7" cy="187.8" r="2.7"/>
<circle fill="#FFFFFF" cx="5.4" cy="122.5" r="5.4"/>
<circle fill="#FFFFFF" cx="35.7" cy="188.5" r="2.7"/>
<circle fill="#FFFFFF" cx="71.9" cy="165.9" r="2.7"/>
<polygon fill="none" stroke="#FFFFFF" stroke-width="2" stroke-miterlimit="10" points="63.6,264.1 63.6,275 61.7,276.2 61.7,263 
	"/>
<polygon fill="none" stroke="#FFFFFF" stroke-width="2" stroke-miterlimit="10" points="66.4,266 66.4,273.2 65.2,273.9 65.2,265.2 
	"/>
<path fill="none" stroke="#FFFFFF" stroke-width="2" stroke-miterlimit="10" d="M2.4,269.7c17.6,15,33,11.7,57.1,8.8v-8.8V261
	C35.4,258,20.1,254.8,2.4,269.7z"/>
<path fill="none" stroke="#FFFFFF" stroke-width="2" stroke-miterlimit="10" d="M59.5,278.5c-4.9,0.6-9.5,1.2-13.7,1.7l7.7,7.3
	l15.4,2v-3.1L59.5,278.5z"/>
<path fill="none" stroke="#FFFFFF" stroke-width="2" stroke-miterlimit="10" d="M53.5,252l-7.7,7.3c4.3,0.5,8.8,1.1,13.7,1.7
	l9.3-7.9v-3.1L53.5,252z"/>
</svg>
